<!-- filepath: c:\Users\vjsandoval\Documents\projects\challenge\src\assets\svgs\icon-back.svg -->
<svg width="20" height="20" viewBox="0 0 20 20" fill="#4F4FFF" xmlns="http://www.w3.org/2000/svg">
<path d="M10 1C14.9706 1 19 5.02944 19 10C19 14.9706 14.9706 19 10 19C5.02944 19 1 14.9706 1 10C1 5.02944 5.02944 1 10 1ZM10 3C6.13401 3 3 6.13401 3 10C3 13.866 6.13401 17 10 17C13.866 17 17 13.866 17 10C17 6.13401 13.866 3 10 3Z" fill="current"/>
<path d="M7.55317 9.99995L10.8094 6.74683L11.6907 7.62808L9.32192 9.99995L11.6907 12.3718L10.8094 13.2531L7.55317 9.99995Z" fill="current"/>
</svg>